<svg width="113" height="106" viewBox="0 0 113 106" fill="none" xmlns="http://www.w3.org/2000/svg">
<g opacity="0.56" filter="url(#filter0_f_4298_1629)">
<rect x="30" y="30" width="53" height="46" rx="12" fill="url(#paint0_linear_4298_1629)"/>
</g>
<rect x="24" y="6" width="65" height="65" rx="8" fill="url(#paint1_linear_4298_1629)"/>
<path d="M56.5 25.1178C52.1658 25.1002 48.0011 26.7302 44.9191 29.6505C41.8371 32.5707 40.0893 36.5428 40.0588 40.696C40.0558 42.7442 40.4797 44.7724 41.3055 46.6616C42.1312 48.5508 43.3424 50.2629 44.8678 51.6976C45.5141 52.3061 46.3838 52.647 47.2898 52.647C48.1958 52.647 49.0655 52.3061 49.7117 51.6976C50.0297 51.3978 50.2823 51.0403 50.4547 50.646C50.627 50.2517 50.7158 49.8285 50.7158 49.4009C50.7158 48.9734 50.627 48.5502 50.4547 48.1559C50.2823 47.7616 50.0297 47.4041 49.7117 47.1043C48.8225 46.2662 48.1162 45.2669 47.6341 44.1647C47.1519 43.0624 46.9036 41.8791 46.9036 40.684C46.9036 39.4888 47.1519 38.3055 47.6341 37.2032C48.1162 36.101 48.8225 35.1017 49.7117 34.2636C51.5193 32.5597 53.9533 31.6047 56.4889 31.6047C59.0244 31.6047 61.4584 32.5597 63.266 34.2636C64.1552 35.1017 64.8615 36.101 65.3437 37.2032C65.8258 38.3055 66.0741 39.4888 66.0741 40.684C66.0741 41.8791 65.8258 43.0624 65.3437 44.1647C64.8615 45.2669 64.1552 46.2662 63.266 47.1043C62.948 47.4041 62.6954 47.7616 62.523 48.1559C62.3507 48.5502 62.2619 48.9734 62.2619 49.4009C62.2619 49.8285 62.3507 50.2517 62.523 50.646C62.6954 51.0403 62.948 51.3978 63.266 51.6976C63.9122 52.3061 64.7819 52.647 65.6879 52.647C66.5939 52.647 67.4636 52.3061 68.1099 51.6976C69.6393 50.2647 70.8546 48.5533 71.6843 46.6641C72.5139 44.7748 72.9413 42.7457 72.9412 40.696C72.9107 36.5428 71.1628 32.5707 68.0809 29.6505C64.9989 26.7302 60.8342 25.1002 56.5 25.1178Z" fill="white"/>
<defs>
<filter id="filter0_f_4298_1629" x="0" y="0" width="113" height="106" filterUnits="userSpaceOnUse" color-interpolation-filters="sRGB">
<feFlood flood-opacity="0" result="BackgroundImageFix"/>
<feBlend mode="normal" in="SourceGraphic" in2="BackgroundImageFix" result="shape"/>
<feGaussianBlur stdDeviation="15" result="effect1_foregroundBlur_4298_1629"/>
</filter>
<linearGradient id="paint0_linear_4298_1629" x1="30.5337" y1="44.0244" x2="84.6946" y2="55.6165" gradientUnits="userSpaceOnUse">
<stop stop-color="#008ECF"/>
<stop offset="1" stop-color="#08AEAE"/>
</linearGradient>
<linearGradient id="paint1_linear_4298_1629" x1="24.6545" y1="25.8171" x2="91.804" y2="38.2909" gradientUnits="userSpaceOnUse">
<stop stop-color="#00A5F0"/>
<stop offset="1" stop-color="#00D7D7"/>
</linearGradient>
</defs>
</svg>
